<svg xmlns="http://www.w3.org/2000/svg" width="23.454" height="23.448" viewBox="0 0 23.454 23.448">
  <path id="Icon_awesome-instagram" data-name="Icon awesome-instagram" d="M11.724,7.95a6.012,6.012,0,1,0,6.012,6.012A6,6,0,0,0,11.724,7.95Zm0,9.92a3.909,3.909,0,1,1,3.909-3.909,3.916,3.916,0,0,1-3.909,3.909ZM19.384,7.7a1.4,1.4,0,1,1-1.4-1.4A1.4,1.4,0,0,1,19.384,7.7Zm3.982,1.423a6.939,6.939,0,0,0-1.894-4.913A6.985,6.985,0,0,0,16.559,2.32c-1.936-.11-7.739-.11-9.674,0A6.975,6.975,0,0,0,1.971,4.209,6.962,6.962,0,0,0,.077,9.122c-.11,1.936-.11,7.739,0,9.674A6.939,6.939,0,0,0,1.971,23.71,6.994,6.994,0,0,0,6.884,25.6c1.936.11,7.739.11,9.674,0a6.939,6.939,0,0,0,4.913-1.894A6.985,6.985,0,0,0,23.366,18.8c.11-1.936.11-7.733,0-9.669Zm-2.5,11.746A3.957,3.957,0,0,1,18.636,23.1c-1.544.612-5.206.471-6.912.471s-5.374.136-6.912-.471a3.957,3.957,0,0,1-2.229-2.229c-.612-1.544-.471-5.206-.471-6.912s-.136-5.374.471-6.912A3.957,3.957,0,0,1,4.812,4.821c1.544-.612,5.206-.471,6.912-.471s5.374-.136,6.912.471A3.957,3.957,0,0,1,20.865,7.05c.612,1.544.471,5.206.471,6.912S21.477,19.335,20.865,20.874Z" transform="translate(0.005 -2.238)" fill="#fff"/>
</svg>
