<svg xmlns="http://www.w3.org/2000/svg" width="25.952" height="25.952" viewBox="0 0 25.952 25.952">
  <path id="Icon_awesome-reddit" data-name="Icon awesome-reddit" d="M10.687,16.129a1.3,1.3,0,1,1,1.287-1.287A1.3,1.3,0,0,1,10.687,16.129Zm15.828-2.59A12.976,12.976,0,1,1,13.539.563,12.974,12.974,0,0,1,26.515,13.539Zm-6.922-2.156a1.751,1.751,0,0,0-1.245.523,8.459,8.459,0,0,0-4.5-1.392l.91-4.1,2.9.654a1.29,1.29,0,0,0,1.287,1.287,1.3,1.3,0,1,0-1.156-1.884l-3.2-.712a.309.309,0,0,0-.361.23l-1,4.521a8.535,8.535,0,0,0-4.474,1.4,1.732,1.732,0,1,0-2.014,2.752,3.776,3.776,0,0,0-.089.811c0,2.752,3.1,4.981,6.907,4.981,3.825,0,6.922-2.229,6.922-4.981a3.342,3.342,0,0,0-.1-.827,1.726,1.726,0,0,0-.78-3.27Zm-3.605,6.08c-.952.952-3.982.937-4.9,0a.316.316,0,0,0-.434,0,.307.307,0,0,0,0,.45c1.193,1.193,4.568,1.193,5.766,0a.307.307,0,0,0,0-.45A.316.316,0,0,0,15.987,17.463Zm.4-3.924a1.3,1.3,0,1,0,1.3,1.3A1.293,1.293,0,0,0,16.39,13.539Z" transform="translate(-0.563 -0.563)" fill="#fff"/>
</svg>
