<svg xmlns="http://www.w3.org/2000/svg" width="23.441" height="23.441" viewBox="0 0 23.441 23.441">
  <path id="Icon_awesome-twitter-square" data-name="Icon awesome-twitter-square" d="M20.929,2.25H2.511A2.512,2.512,0,0,0,0,4.761V23.179a2.512,2.512,0,0,0,2.511,2.511H20.929a2.512,2.512,0,0,0,2.511-2.511V4.761A2.512,2.512,0,0,0,20.929,2.25Zm-2.559,8.309c.01.147.01.3.01.445a9.7,9.7,0,0,1-9.763,9.763,9.718,9.718,0,0,1-5.269-1.538,7.23,7.23,0,0,0,.827.042,6.88,6.88,0,0,0,4.259-1.465,3.436,3.436,0,0,1-3.207-2.381,3.7,3.7,0,0,0,1.549-.063,3.432,3.432,0,0,1-2.747-3.37v-.042a3.429,3.429,0,0,0,1.549.434A3.424,3.424,0,0,1,4.05,9.528,3.389,3.389,0,0,1,4.515,7.8a9.744,9.744,0,0,0,7.074,3.589,3.439,3.439,0,0,1,5.855-3.134,6.724,6.724,0,0,0,2.177-.827,3.423,3.423,0,0,1-1.507,1.889,6.829,6.829,0,0,0,1.978-.534A7.223,7.223,0,0,1,18.371,10.559Z" transform="translate(0 -2.25)" fill="#fff"/>
</svg>
